<svg width="800" height="568" viewBox="0 0 800 568" fill="none" xmlns="http://www.w3.org/2000/svg">
<path d="M706.703 0.460938H93.2969C41.7625 0.460938 0 42.2234 0 93.7437V474.255C0 525.777 41.7625 567.539 93.2969 567.539H706.703C758.223 567.539 800 525.777 800 474.255V93.7437C800 42.2234 758.225 0.460938 706.703 0.460938ZM755.453 499.389L737.694 520.42L488.995 317.448L450.48 354.095C421.936 380.308 378.066 380.308 349.52 354.095L311.005 317.448L62.3062 520.42L44.5469 499.389L278.047 286.081L43.0172 65.2L56.9125 46.7891L400 306.75L743.086 46.7891L756.97 65.2L521.955 286.081L755.453 499.389Z" fill="white"/>
</svg>
