<svg width="24" height="26" viewBox="0 0 24 26" fill="none" xmlns="http://www.w3.org/2000/svg">
<path d="M23.25 6.75001V9.25C23.25 9.5815 23.1183 9.8995 22.8839 10.1339C22.6495 10.3683 22.3315 10.5 22 10.5C20.2437 10.4969 18.5192 10.0313 17 9.15V17.375C17.0004 18.8182 16.6164 20.2355 15.8874 21.4811C15.1584 22.7267 14.1108 23.7557 12.8523 24.4622C11.5939 25.1687 10.1699 25.5272 8.7269 25.5009C7.2839 25.4746 5.87397 25.0644 4.64207 24.3125C3.41017 23.5606 2.40077 22.4942 1.71769 21.2228C1.0346 19.9515 0.702482 18.5211 0.755482 17.0789C0.808482 15.6366 1.24468 14.2345 2.01924 13.0167C2.79379 11.7989 3.87874 10.8095 5.1625 10.15C5.35459 10.0477 5.57008 9.9973 5.78763 10.0038C6.00518 10.0103 6.21726 10.0735 6.40288 10.1872C6.5885 10.3008 6.74124 10.461 6.84597 10.6518C6.95069 10.8426 7.0038 11.0574 7 11.275V14.425C6.98664 14.7186 6.8614 14.9959 6.65 15.2C6.20108 15.6541 5.90269 16.2353 5.79529 16.8647C5.68789 17.4941 5.77668 18.1414 6.04962 18.7186C6.32255 19.2959 6.76643 19.7753 7.321 20.0917C7.8757 20.4081 8.5142 20.5463 9.15 20.4875C9.9485 20.3859 10.6812 19.9927 11.2073 19.3836C11.7333 18.7744 12.0157 17.9923 12 17.1875V1.75001C12 1.41849 12.1317 1.10055 12.3661 0.86613C12.6005 0.63171 12.9185 0.50001 13.25 0.50001H15.8875C16.1853 0.49568 16.4748 0.59782 16.704 0.78803C16.9332 0.97824 17.0869 1.24402 17.1375 1.53751C17.3742 2.65368 17.9856 3.6553 18.8701 4.37609C19.7546 5.09687 20.859 5.49346 22 5.50001C22.3315 5.50001 22.6495 5.63171 22.8839 5.86613C23.1183 6.10055 23.25 6.41849 23.25 6.75001Z" fill="white"/>
</svg>
