<svg width="548" height="626" viewBox="0 0 548 626" fill="none" xmlns="http://www.w3.org/2000/svg">
<path d="M225.26 298.334C227.233 259.87 239.786 203.259 272.388 178.911C321.034 142.58 384.069 199.406 404.902 241.072C436.619 304.505 421.164 393.933 366.642 440.898C299.929 498.366 206.414 515.469 127.881 473.077C46.5194 429.158 14.0479 344.41 21.8018 254.838C30.718 151.841 114.411 53.1793 215.632 28.914C266.199 16.7917 317.924 18.4864 367.74 33.0524C423.237 49.2796 465.028 86.5194 493.413 136.682C519.66 183.065 531.853 241.779 526.098 294.956C520.122 350.19 495.298 405.298 475.17 456.101C454.79 507.543 430.632 555.456 407.689 605.422" stroke="#1F4E60" stroke-width="40" stroke-linecap="round"/>
</svg>
