<svg width="313" height="314" viewBox="0 0 313 314" fill="none" xmlns="http://www.w3.org/2000/svg">
<path d="M112.511 296.733C77.7325 225.595 52.2893 143.013 35.063 65.741C32.6362 54.8548 27.6808 34.7753 36.7522 24.9479C49.9426 10.6583 92.053 33.9103 103.389 39.6436C140.107 58.2134 172.02 84.2683 204.57 109.068C228.223 127.089 252.777 143.592 277.203 160.502C283.52 164.876 295.702 170.715 300.007 177.478C304.691 184.84 253.399 191.242 251.359 191.498C214.299 196.157 176.943 198.142 139.875 202.816C106.651 207.004 73.7651 214.563 40.215 215.991C32.9202 216.302 10.7344 219.354 13.1885 205.856C15.5941 192.626 25.4081 179.589 33.6273 169.455C52.7613 145.863 76.3308 125.158 99.6732 105.858C110.774 96.6801 234.677 -6.72646 245.954 15.8265C249.207 22.3334 243.997 35.3318 242.407 41.0794C234.913 68.159 223.978 93.9708 212.255 119.456C183.69 181.554 148.238 240.481 117.071 301.293" stroke="black" stroke-width="25" stroke-linecap="round"/>
</svg>
