<svg width="470" height="378" viewBox="0 0 470 378" fill="none" xmlns="http://www.w3.org/2000/svg">
<path d="M162.595 356.686C160.769 320.168 154.716 283.648 151.362 247.229C147.741 207.915 143.291 168.745 139.116 129.495C135.931 99.5623 131.884 69.1042 132.19 38.9566C132.255 32.6082 132.404 18.944 140.636 16.4909C158.584 11.1422 186.077 40.1085 197.391 49.5982C236.548 82.439 270.233 121.906 305.413 158.802C337.663 192.625 371.515 224.24 407.015 254.577C415.489 261.818 430.07 269.976 436.744 279.154C439.224 282.563 433.292 282.248 431.677 282.195C407.056 281.379 382.347 276.795 358.03 273.242C251.271 257.643 143.295 248.408 36.8374 231.267C25.5862 229.455 5.58653 228.087 21.8885 214.797C47.8918 193.599 80.4157 178.83 110.231 164.292C164.005 138.071 218.743 113.566 274.755 92.5028C321.489 74.9278 369.845 55.9386 419.43 47.8247C428.301 46.3732 443.869 42.4852 452.791 46.8112C459.387 50.0092 444.286 66.4636 443.501 67.5033C407.744 114.848 363.532 155.396 322.051 197.568C267.637 252.889 212.535 307.53 158.034 362.767" stroke="#BCAA85" stroke-width="30" stroke-linecap="round"/>
</svg>
