<svg width="306" height="337" viewBox="0 0 306 337" fill="none" xmlns="http://www.w3.org/2000/svg">
<path d="M90.0174 307.99C88.1665 256.169 83.4387 204.447 82.0784 152.588C81.3778 125.88 81.3884 99.2822 84.2743 72.6911C85.8151 58.4947 85.7113 26.8889 99.3077 17.3714C113.595 7.36994 141.038 31.8069 149.813 38.7391C188.609 69.3873 219.538 111.248 245.504 153.01C261.21 178.271 273.143 205.947 285.79 232.823C286.022 233.316 290.977 242.106 290.013 243.464C286.833 247.946 249.121 231.502 247.615 230.965C178.179 206.197 109.327 189.373 36.1334 180.29C35.4199 180.202 15.2452 179.236 15.019 175.729C14.9305 174.358 16.2948 173.19 17.3838 172.351C23.8739 167.353 44.9505 156.209 49.3088 153.939C99.5394 127.785 151.639 106.359 204.626 86.5421C227.219 78.093 250.089 69.3363 274.051 65.6811C284.801 64.0412 283.083 66.328 278.189 75.7316C228.772 170.69 148.168 245.443 74.815 321.672" stroke="#6B6B6B" stroke-width="30" stroke-linecap="round"/>
</svg>
