<svg width="993" height="507" viewBox="0 0 993 507" fill="none" xmlns="http://www.w3.org/2000/svg">
<path d="M56.2757 386.186C36.8447 347.324 20.3076 300.96 21.2186 256.778C22.448 197.147 77.4807 229.556 109.294 248.338C151.229 273.094 201.02 306.899 252.12 301.789C322.029 294.798 364.091 259.155 410.742 210.035C444.704 174.276 478.787 112.702 528.465 96.6401C577.122 80.9088 628.498 106.808 677.999 102.483C742.753 96.8249 786.139 58.0945 842.248 31.2866C900.988 3.22216 934.39 40.9499 971.657 82.3576" stroke="#080A68" stroke-width="42" stroke-linecap="round"/>
<path d="M149.762 471.881C220.572 518.18 305.75 434.739 355.343 392.895C391.345 362.519 436.97 402.244 477.394 404.797C514.228 407.123 550.222 355.902 570.88 331.22C596.534 300.568 626.493 286.385 666.097 281.015C771.958 266.66 876.277 235.219 971.657 187.529" stroke="#080A68" stroke-width="42" stroke-linecap="round"/>
</svg>
