<svg width="415" height="379" viewBox="0 0 415 379" fill="none" xmlns="http://www.w3.org/2000/svg">
<path d="M144.57 368.997C128.242 289.804 130.455 207.505 124.807 127.11C123.711 111.509 103.297 -11.0911 152.002 13.2615C190.2 32.3604 218.995 69.1169 247.271 99.9995C277.629 133.157 307.609 166.694 339.16 198.73C346.313 205.993 365.187 219.738 367.538 230.318C368.638 235.266 319.456 236.347 317.37 236.399C273.008 237.486 228.551 236.736 184.181 236.736C142.161 236.736 100.315 237.519 58.7611 230.318C49.455 228.705 9.40413 225.184 11.0425 209.034C12.1777 197.844 21.0941 187.699 28.3563 179.981C46.673 160.515 68.6995 144.763 92.3752 132.516C153.377 100.959 219.581 76.617 285.108 56.3349C305.753 49.9447 326.643 44.1886 347.606 38.9366C363.656 34.9156 381.924 29.1894 398.788 30.322C404.427 30.7007 406.202 32.947 404.024 38.5143C390.116 74.0563 354.809 106.851 330.968 135.134C276.597 199.635 222.792 264.573 168.894 329.471" stroke="black" stroke-width="20" stroke-linecap="round"/>
</svg>
