<svg width="555" height="640" viewBox="0 0 555 640" fill="none" xmlns="http://www.w3.org/2000/svg">
<path d="M248.888 308.2C222.413 276.429 209.175 224.029 241.878 190.466C286.385 144.787 360.349 203.3 376.081 248.066C399.628 315.068 338.14 393.171 286.218 428.467C253.631 450.62 212.95 470.764 172.961 473.652C125.973 477.046 80.3931 451.423 52.6084 414.616C24.5915 377.502 14.3903 324.906 15.1092 279.484C16.1664 212.688 41.1976 152.047 85.1247 101.87C119.573 62.5194 163.803 29.4482 215.95 19.5235C281.512 7.04545 357.393 20.8428 413.918 57.0228C465.933 90.3164 509.321 139.854 530.301 198.405C553.978 264.483 528.277 336.762 491.957 392.742C453.365 452.223 395.738 494.594 335.71 530.746C301.55 551.319 265.801 569.863 229.125 585.559C189.864 602.361 148.396 612.538 107.506 624.409" stroke="black" stroke-width="30" stroke-linecap="round"/>
</svg>
