<svg width="453" height="490" viewBox="0 0 453 490" fill="none" xmlns="http://www.w3.org/2000/svg">
<g clip-path="url(#clip0_14_105)">
<path d="M395.976 46.7159C438.176 86.4159 458.276 148.116 450.276 200.416C442.176 252.616 406.076 295.316 378.476 342.816C350.876 390.416 331.876 442.716 293.176 468.916C254.476 495.116 196.076 495.116 147.476 474.616C98.7763 454.216 59.8763 413.416 32.5763 365.916C5.27626 318.416 -10.2237 264.316 7.67625 225.516C25.6763 186.716 77.2763 163.116 119.176 123.316C160.976 83.6159 193.176 27.5159 241.376 8.41591C289.576 -10.7841 353.876 7.01591 395.976 46.7159Z" fill="#1F4E60"/>
</g>
<defs>
<clipPath id="clip0_14_105">
<rect width="453" height="490" fill="white"/>
</clipPath>
</defs>
</svg>
