<svg width="474" height="470" viewBox="0 0 474 470" fill="none" xmlns="http://www.w3.org/2000/svg">
<g clip-path="url(#clip0_14_103)">
<path d="M329.308 55.0857C374.708 80.6857 431.008 98.7857 456.808 136.686C482.608 174.586 477.808 232.186 450.808 272.286C423.708 312.386 374.308 335.086 331.208 371.086C288.108 407.086 251.208 456.386 206.508 467.286C161.708 478.186 109.008 450.786 69.0079 413.786C29.1079 376.686 1.90787 330.186 0.107868 284.686C-1.79213 239.286 21.7079 194.986 46.9079 161.786C72.2079 128.586 99.2079 106.486 127.408 75.2857C155.608 44.0857 185.008 3.8857 217.008 0.285705C249.108 -3.4143 283.808 29.5857 329.308 55.0857Z" fill="#080A68"/>
</g>
<defs>
<clipPath id="clip0_14_103">
<rect width="474" height="470" fill="white"/>
</clipPath>
</defs>
</svg>
