<svg width="468" height="406" viewBox="0 0 468 406" fill="none" xmlns="http://www.w3.org/2000/svg">
<g clip-path="url(#clip0_14_101)">
<path d="M376.734 101.491C419.534 143.891 463.634 178.291 467.234 217.191C470.834 256.091 434.034 299.291 400.634 332.991C367.334 366.691 337.634 390.891 304.634 400.291C271.734 409.691 235.534 404.391 192.134 397.791C148.734 391.191 97.9343 383.391 59.4343 351.591C20.8343 319.791 -5.56565 263.991 1.73435 212.691C8.93435 161.291 49.8344 114.291 96.9343 72.5913C144.034 30.8913 197.334 -5.50875 244.834 1.49125C292.334 8.59125 333.834 58.9913 376.734 101.491Z" fill="#BCAA85"/>
</g>
<defs>
<clipPath id="clip0_14_101">
<rect width="468" height="406" fill="white"/>
</clipPath>
</defs>
</svg>
