<svg width="45" height="43" viewBox="0 0 45 43" fill="none" xmlns="http://www.w3.org/2000/svg">
<path d="M22.5 15.9024C19.2744 15.9024 16.6421 18.4178 16.6421 21.5C16.6421 24.5822 19.2744 27.0976 22.5 27.0976C25.7256 27.0976 28.3579 24.5822 28.3579 21.5C28.3579 18.4178 25.7256 15.9024 22.5 15.9024Z" fill="white"/>
<path d="M40.0694 21.5C40.0694 19.182 40.0913 16.8851 39.9551 14.5713C39.8189 11.8838 39.1773 9.49864 37.1206 7.5334C35.0596 5.56397 32.5679 4.95508 29.7554 4.82491C27.3296 4.69473 24.9258 4.71573 22.5044 4.71573C20.0786 4.71573 17.6748 4.69473 15.2534 4.82491C12.4409 4.95508 9.94485 5.56817 7.88821 7.5334C5.82717 9.50284 5.18997 11.8838 5.05374 14.5713C4.91751 16.8893 4.93948 19.1862 4.93948 21.5C4.93948 23.8138 4.91751 26.1149 5.05374 28.4287C5.18997 31.1162 5.83157 33.5014 7.88821 35.4666C9.94924 37.436 12.4409 38.0449 15.2534 38.1751C17.6792 38.3053 20.083 38.2843 22.5044 38.2843C24.9302 38.2843 27.334 38.3053 29.7554 38.1751C32.5679 38.0449 35.064 37.4318 37.1206 35.4666C39.1817 33.4972 39.8189 31.1162 39.9551 28.4287C40.0957 26.1149 40.0694 23.818 40.0694 21.5ZM22.5 30.1126C17.5122 30.1126 13.4868 26.2661 13.4868 21.5C13.4868 16.7339 17.5122 12.8874 22.5 12.8874C27.4878 12.8874 31.5132 16.7339 31.5132 21.5C31.5132 26.2661 27.4878 30.1126 22.5 30.1126ZM31.8824 14.5461C30.7178 14.5461 29.7774 13.6475 29.7774 12.5347C29.7774 11.4219 30.7178 10.5232 31.8824 10.5232C33.0469 10.5232 33.9873 11.4219 33.9873 12.5347C33.9829 13.6517 33.0469 14.5461 31.8824 14.5461Z" fill="white"/>
</svg>
