<svg width="30" height="30" viewBox="0 0 30 30" fill="none" xmlns="http://www.w3.org/2000/svg">
<path d="M26.25 8.75001V11.25C26.25 11.5815 26.1183 11.8995 25.8839 12.1339C25.6495 12.3683 25.3315 12.5 25 12.5C23.2437 12.4969 21.5192 12.0313 20 11.15V19.375C20.0004 20.8182 19.6164 22.2355 18.8874 23.4811C18.1584 24.7267 17.1108 25.7557 15.8523 26.4622C14.5939 27.1687 13.1699 27.5272 11.7269 27.5009C10.2839 27.4746 8.87397 27.0644 7.64207 26.3125C6.41017 25.5606 5.40077 24.4942 4.71769 23.2228C4.0346 21.9515 3.70248 20.5211 3.75548 19.0789C3.80848 17.6366 4.24468 16.2345 5.01924 15.0167C5.79379 13.7989 6.87874 12.8095 8.1625 12.15C8.35459 12.0477 8.57008 11.9973 8.78763 12.0038C9.00518 12.0103 9.21726 12.0735 9.40288 12.1872C9.5885 12.3008 9.74124 12.461 9.84597 12.6518C9.95069 12.8426 10.0038 13.0574 10 13.275V16.425C9.98664 16.7186 9.8614 16.9959 9.65 17.2C9.20108 17.6541 8.90269 18.2353 8.79529 18.8647C8.68789 19.4941 8.77668 20.1414 9.04962 20.7186C9.32255 21.2959 9.76643 21.7753 10.321 22.0917C10.8757 22.4081 11.5142 22.5463 12.15 22.4875C12.9485 22.3859 13.6812 21.9927 14.2073 21.3836C14.7333 20.7744 15.0157 19.9923 15 19.1875V3.75001C15 3.41849 15.1317 3.10055 15.3661 2.86613C15.6005 2.63171 15.9185 2.50001 16.25 2.50001H18.8875C19.1853 2.49568 19.4748 2.59782 19.704 2.78803C19.9332 2.97824 20.0869 3.24402 20.1375 3.53751C20.3742 4.65368 20.9856 5.6553 21.8701 6.37609C22.7546 7.09687 23.859 7.49346 25 7.50001C25.3315 7.50001 25.6495 7.63171 25.8839 7.86613C26.1183 8.10055 26.25 8.41849 26.25 8.75001Z" fill="white"/>
</svg>
