<svg width="34" height="30" viewBox="0 0 34 30" fill="none" xmlns="http://www.w3.org/2000/svg">
<g clip-path="url(#clip0_38_105)">
<path d="M30.3263 7.42095C30.3468 7.73322 30.3468 8.0455 30.3468 8.36065C30.3468 17.9635 23.4057 29.0385 10.7136 29.0385V29.0327C6.96438 29.0385 3.29299 27.9074 0.136719 25.7747C0.681893 25.8438 1.2298 25.8783 1.77907 25.8798C4.88616 25.8826 7.90443 24.7846 10.3488 22.7628C7.39614 22.7038 4.80691 20.6761 3.90238 17.716C4.93671 17.9261 6.00247 17.8829 7.01767 17.5908C3.79854 16.9058 1.48258 13.9269 1.48258 10.4674V10.3753C2.44175 10.938 3.51571 11.2503 4.61425 11.2848C1.58232 9.15069 0.647734 4.90259 2.47865 1.58124C5.98197 6.12147 11.1509 8.88159 16.6996 9.17372C16.1435 6.64961 16.9032 4.00462 18.6959 2.23026C21.475 -0.521221 25.846 -0.380193 28.4585 2.54541C30.0038 2.2245 31.4849 1.62729 32.8403 0.781127C32.3252 2.46339 31.2472 3.89237 29.807 4.80042C31.1748 4.63061 32.5111 4.24494 33.7695 3.65637C32.8431 5.11845 31.6762 6.39202 30.3263 7.42095Z" fill="white"/>
</g>
<defs>
<clipPath id="clip0_38_105">
<rect width="33.8855" height="29.3568" fill="white" transform="translate(0 0.0400085)"/>
</clipPath>
</defs>
</svg>
