<svg width="46" height="44" viewBox="0 0 46 44" fill="none" xmlns="http://www.w3.org/2000/svg">
<path d="M42.3134 10.9545C42.0842 10.0955 41.6376 9.31232 41.018 8.68297C40.3984 8.05361 39.6274 7.59995 38.7818 7.36708C35.6451 6.52692 23.104 6.52692 23.104 6.52692C23.104 6.52692 10.5629 6.52692 7.4262 7.36708C5.70903 7.83513 4.35819 9.21021 3.89455 10.9545C3.07031 14.1378 3.07031 20.7428 3.07031 20.7428C3.07031 20.7428 3.07031 27.3799 3.89455 30.5312C4.35819 32.2755 5.71189 33.6506 7.4262 34.1186C10.5629 34.9588 23.104 34.9588 23.104 34.9588C23.104 34.9588 35.6451 34.9588 38.7818 34.1186C39.6274 33.8857 40.3984 33.4321 41.018 32.8027C41.6376 32.1734 42.0842 31.3902 42.3134 30.5312C43.1376 27.3479 43.1376 20.7428 43.1376 20.7428C43.1376 20.7428 43.1376 14.1378 42.3134 10.9545Z" fill="white"/>
<path d="M19.0742 26.8769L29.5032 20.7777L19.0742 14.6437V26.8769Z" fill="black"/>
</svg>
